# Blender v2.80 (sub 75) OBJ File: ''
# www.blender.org
mtllib vendingmachine.mtl
o Food_VendingMachine_Mesh
v 0.000003 0.000007 0.000001
v 1.116507 0.000007 0.000001
v 0.000003 1.723895 0.556495
v 1.116507 1.724017 0.556495
v 0.000003 1.724017 0.000001
v 1.116507 1.724017 0.000001
v 0.837381 0.142430 0.556817
v 0.000003 0.589008 0.556495
v 0.000003 0.142430 0.555853
v 0.837381 1.723594 0.556495
v 0.822197 1.704754 0.584319
v 0.015187 1.704754 0.584319
v 0.822197 0.609993 0.584319
v 0.015187 0.609993 0.584319
v 0.837381 0.589090 0.556495
v 0.000003 1.723895 0.598141
v 0.000003 0.589587 0.584319
v 0.837381 0.589090 0.584319
v 0.837381 1.723594 0.598141
v 0.015187 1.704754 0.598232
v 0.822197 1.704754 0.598232
v 0.822197 0.609993 0.598232
v 0.015187 0.609993 0.598232
v 0.837381 0.589090 0.598232
v 0.000003 0.589587 0.598232
v 1.116507 0.140467 0.552867
v 1.116507 -0.001115 0.484627
v 0.000003 -0.001115 0.488025
vt 0.164661 0.981058
vt 0.343083 0.981058
vt 0.343074 0.988218
vt 0.164653 0.987998
vt 0.437878 0.886415
vt 0.437824 0.692983
vt 0.442197 0.693027
vt 0.444492 0.886426
vt 0.437824 0.616932
vt 0.617962 0.616771
vt 0.620613 0.692955
vt 0.617962 0.692977
vt 0.621410 0.885630
vt 0.617476 0.885659
vt 0.375969 0.542814
vt 0.820770 0.542814
vt 0.826345 0.549876
vt 0.369510 0.549876
vt 0.820770 0.059044
vt 0.826345 0.052590
vt 0.374844 0.058921
vt 0.369510 0.052590
vt 0.614963 0.696734
vt 0.445935 0.696923
vt 0.106183 0.592630
vt 0.011283 0.616573
vt 0.023652 0.592582
vt 0.650838 0.616796
vt 0.437680 0.592487
vt 0.650589 0.592483
vt 0.343108 0.592678
vt 0.636915 0.632355
vt 0.789739 0.660169
vt 0.728050 0.661080
vt 0.106189 0.886415
vt 0.343131 0.886415
vt 0.106088 0.981058
vt 0.011283 0.886415
vt 0.992809 0.046407
vt 0.992809 0.667861
vt 0.855220 0.667861
vt 0.855220 0.222271
vt 0.853992 0.035060
vt 0.835331 0.558920
vt 0.360501 0.559057
vt 0.360501 0.042876
vt 0.835331 0.042650
vt 0.106815 0.506613
vt 0.343714 0.506613
vn 0.0004 1.0000 0.0000
vn -1.0000 0.0000 0.0000
vn 1.0000 0.0000 0.0000
vn 0.0000 -1.0000 0.0000
vn 0.0000 1.0000 0.0000
vn -0.0006 -1.0000 0.0000
vn 0.0022 -0.4307 0.9025
vn -0.0005 -0.9087 0.4175
vn -0.0001 1.0000 0.0005
vn -0.0006 -0.0625 0.9980
vn 0.0023 -0.0317 0.9995
vn 0.0000 -0.0000 -1.0000
vn 0.0067 -0.0010 1.0000
vn 0.0037 -0.0317 0.9995
vn 0.0013 0.0027 1.0000
vn -0.0013 0.0028 1.0000
vn -0.0016 0.0023 1.0000
vn 0.0016 0.0023 1.0000
vn 0.0000 0.0000 1.0000
vn -0.0012 0.0000 1.0000
vn -0.0016 0.0000 1.0000
vn 0.0012 0.0000 1.0000
vn 0.0016 0.0000 1.0000
vn -0.0000 -1.0000 -0.0023
usemtl Material_#1
s off
f 10/1/1 3/2/1 16/3/1 19/4/1
f 3/5/2 8/6/2 17/7/2 16/8/2
f 8/6/2 9/9/2 17/7/2
f 7/10/3 15/11/3 18/12/3
f 15/11/3 10/13/3 19/14/3 18/12/3
f 12/15/4 11/16/4 21/17/4 20/18/4
f 11/16/2 13/19/2 22/20/2 21/17/2
f 13/19/5 14/21/5 23/22/5 22/20/5
f 14/21/3 12/15/3 20/18/3 23/22/3
f 17/7/6 18/12/6 24/23/6 25/24/6
f 18/12/3 19/14/3 24/23/3
f 16/8/2 17/7/2 25/24/2
f 2/25/3 26/26/3 27/27/3
f 26/28/7 9/9/7 28/29/7 27/30/7
f 9/9/2 1/31/2 28/29/2
s 1
f 9/32/8 26/33/8 7/34/8
f 6/35/9 5/36/9 3/2/9 10/1/9 4/37/9
f 18/12/10 17/7/10 9/9/10 7/10/11
f 26/26/3 2/25/3 6/35/3 4/38/3
f 2/25/12 1/31/12 5/36/12 6/35/12
f 1/31/2 9/9/2 8/6/2 3/5/2 5/36/2
f 26/39/13 4/40/13 10/41/13 15/42/13 7/43/14
f 19/44/15 16/45/16 20/18/17 21/17/18
f 12/15/19 14/21/19 13/19/19 11/16/19
f 16/45/16 25/46/20 23/22/21 20/18/17
f 24/47/22 19/44/15 21/17/18 22/20/23
f 24/47/22 22/20/23 23/22/21 25/46/20
f 1/31/24 2/25/24 27/48/24 28/49/24
